<svg width="171" height="41" viewBox="0 0 171 41" fill="none" xmlns="http://www.w3.org/2000/svg">
<g clip-path="url(#clip0_2_1621)">
<path d="M52.0601 28.1375H64.0121V24.5375H56.3081V10.9775H52.0601V28.1375Z" fill="black" fill-opacity="0.8"/>
<path d="M71.0932 25.7377C69.3892 25.7377 68.5012 24.2497 68.5012 22.0177C68.5012 19.7857 69.3892 18.2737 71.0932 18.2737C72.7972 18.2737 73.7092 19.7857 73.7092 22.0177C73.7092 24.2497 72.7972 25.7377 71.0932 25.7377ZM71.1172 28.5217C75.0772 28.5217 77.6692 25.7137 77.6692 22.0177C77.6692 18.3217 75.0772 15.5137 71.1172 15.5137C67.1812 15.5137 64.5412 18.3217 64.5412 22.0177C64.5412 25.7137 67.1812 28.5217 71.1172 28.5217Z" fill="black" fill-opacity="0.8"/>
<path d="M84.5237 32.3862C86.3477 32.3862 87.9557 31.9782 89.0357 31.0182C90.0197 30.1302 90.6677 28.7862 90.6677 26.9382V15.8502H86.9237V17.1702H86.8757C86.1557 16.1382 85.0517 15.4902 83.4197 15.4902C80.3717 15.4902 78.2597 18.0342 78.2597 21.6342C78.2597 25.4022 80.8277 27.4662 83.5877 27.4662C85.0757 27.4662 86.0117 26.8662 86.7317 26.0502H86.8277V27.2742C86.8277 28.7622 86.1317 29.6262 84.4757 29.6262C83.1797 29.6262 82.5317 29.0742 82.3157 28.4262H78.5237C78.9077 30.9942 81.1397 32.3862 84.5237 32.3862ZM84.4997 24.5622C83.0357 24.5622 82.0757 23.3622 82.0757 21.5142C82.0757 19.6422 83.0357 18.4422 84.4997 18.4422C86.1317 18.4422 86.9957 19.8342 86.9957 21.4902C86.9957 23.2182 86.2037 24.5622 84.4997 24.5622Z" fill="black" fill-opacity="0.8"/>
<path d="M98.366 25.7377C96.662 25.7377 95.774 24.2497 95.774 22.0177C95.774 19.7857 96.662 18.2737 98.366 18.2737C100.07 18.2737 100.982 19.7857 100.982 22.0177C100.982 24.2497 100.07 25.7377 98.366 25.7377ZM98.39 28.5217C102.35 28.5217 104.942 25.7137 104.942 22.0177C104.942 18.3217 102.35 15.5137 98.39 15.5137C94.454 15.5137 91.814 18.3217 91.814 22.0177C91.814 25.7137 94.454 28.5217 98.39 28.5217Z" fill="black" fill-opacity="0.8"/>
<path d="M106.084 28.1375H109.996V15.8495H106.084V28.1375ZM106.084 14.1455H109.996V10.9775H106.084V14.1455Z" fill="black" fill-opacity="0.8"/>
<path d="M111.694 32.1942H115.606V26.8662H115.654C116.422 27.8982 117.55 28.5222 119.134 28.5222C122.35 28.5222 124.486 25.9782 124.486 21.9942C124.486 18.2982 122.494 15.4902 119.23 15.4902C117.55 15.4902 116.35 16.2342 115.51 17.3382H115.438V15.8502H111.694V32.1942ZM118.126 25.4982C116.446 25.4982 115.486 24.1302 115.486 22.1382C115.486 20.1462 116.35 18.6342 118.054 18.6342C119.734 18.6342 120.526 20.0262 120.526 22.1382C120.526 24.2262 119.614 25.4982 118.126 25.4982Z" fill="black" fill-opacity="0.8"/>
<path d="M130.855 28.5222C134.071 28.5222 136.447 27.1302 136.447 24.4422C136.447 21.2982 133.903 20.7462 131.743 20.3862C130.183 20.0982 128.791 19.9782 128.791 19.1142C128.791 18.3462 129.535 17.9862 130.495 17.9862C131.575 17.9862 132.319 18.3222 132.463 19.4262H136.063C135.871 17.0022 133.999 15.4902 130.519 15.4902C127.615 15.4902 125.215 16.8342 125.215 19.4262C125.215 22.3062 127.495 22.8822 129.631 23.2422C131.263 23.5302 132.751 23.6502 132.751 24.7542C132.751 25.5462 132.007 25.9782 130.831 25.9782C129.535 25.9782 128.719 25.3782 128.575 24.1542H124.879C124.999 26.8662 127.255 28.5222 130.855 28.5222Z" fill="black" fill-opacity="0.8"/>
<path d="M141.761 28.4976C143.465 28.4976 144.545 27.8256 145.433 26.6256H145.505V28.1376H149.249V15.8496H145.337V22.7136C145.337 24.1776 144.521 25.1856 143.177 25.1856C141.929 25.1856 141.329 24.4416 141.329 23.0976V15.8496H137.441V23.9136C137.441 26.6496 138.929 28.4976 141.761 28.4976Z" fill="black" fill-opacity="0.8"/>
<path d="M150.95 28.1382H154.862V21.2502C154.862 19.7862 155.582 18.7542 156.806 18.7542C157.982 18.7542 158.534 19.5222 158.534 20.8422V28.1382H162.446V21.2502C162.446 19.7862 163.142 18.7542 164.39 18.7542C165.566 18.7542 166.118 19.5222 166.118 20.8422V28.1382H170.03V20.1462C170.03 17.3862 168.638 15.4902 165.854 15.4902C164.27 15.4902 162.95 16.1622 161.99 17.6502H161.942C161.318 16.3302 160.094 15.4902 158.486 15.4902C156.71 15.4902 155.534 16.3302 154.766 17.6022H154.694V15.8502H150.95V28.1382Z" fill="black" fill-opacity="0.8"/>
<path fill-rule="evenodd" clip-rule="evenodd" d="M20.8841 40.1377C31.9298 40.1377 40.8841 31.1834 40.8841 20.1377C40.8841 9.092 31.9298 0.137695 20.8841 0.137695C9.83838 0.137695 0.884094 9.092 0.884094 20.1377C0.884094 31.1834 9.83838 40.1377 20.8841 40.1377ZM27.1234 9.45453C27.4271 8.37574 26.3802 7.73782 25.4241 8.41899L12.0772 17.9273C11.0403 18.666 11.2034 20.1377 12.3222 20.1377H15.8368V20.1105H22.6866L17.1053 22.0798L14.6448 30.8209C14.3411 31.8997 15.3879 32.5376 16.3441 31.8564L29.691 22.3482C30.7279 21.6095 30.5647 20.1377 29.446 20.1377H24.1162L27.1234 9.45453Z" fill="black" fill-opacity="0.5"/>
</g>
<defs>
<clipPath id="clip0_2_1621">
<rect width="170" height="41" fill="white" transform="translate(0.200012)"/>
</clipPath>
</defs>
</svg>
